<?xml version="1.0" standalone="no"?>
<!DOCTYPE svg PUBLIC "-//W3C//DTD SVG 20010904//EN"
 "http://www.w3.org/TR/2001/REC-SVG-20010904/DTD/svg10.dtd">
<svg version="1.0" xmlns="http://www.w3.org/2000/svg"
 width="700.000000pt" height="700.000000pt" viewBox="0 0 700.000000 700.000000"
 preserveAspectRatio="xMidYMid meet">
<metadata>
Created by potrace 1.14, written by Peter Selinger 2001-2017
</metadata>
<g transform="translate(0.000000,700.000000) scale(0.100000,-0.100000)"
fill="#000000" stroke="none">
<path d="M841 5973 c-11 -5 -187 -125 -254 -175 -16 -11 -18 -27 -15 -135 l3
-123 128 91 c71 50 131 88 135 84 3 -3 6 -207 7 -453 l0 -447 140 -1 140 -1
-2 561 c-1 309 -2 571 -2 584 -1 22 -3 22 -133 21 -73 0 -139 -3 -147 -6z"/>
<path d="M2353 5680 c-18 -4 -45 -15 -60 -25 -147 -96 -135 -310 22 -384 l44
-21 2007 0 c1563 0 2015 3 2048 12 24 7 59 30 83 54 110 110 74 290 -70 354
-36 16 -166 17 -2040 17 -1101 0 -2017 -4 -2034 -7z"/>
<path d="M790 4239 c-65 -13 -160 -62 -203 -106 -50 -49 -94 -144 -100 -213
l-5 -55 131 0 132 0 6 37 c12 77 64 122 143 124 112 4 174 -81 141 -193 -16
-54 -58 -106 -221 -273 -67 -69 -165 -170 -218 -225 l-96 -100 0 -86 0 -86
420 0 421 0 -3 111 -3 111 -227 0 c-126 0 -228 3 -228 7 0 4 12 20 28 36 61
64 282 299 311 332 46 52 90 147 99 216 22 162 -87 308 -265 353 -76 20 -194
24 -263 10z"/>
<path d="M2348 3929 c-41 -11 -91 -44 -114 -76 -93 -126 -31 -306 117 -343 31
-8 624 -10 2054 -8 l2010 3 41 27 c148 96 138 300 -18 385 -31 17 -126 18
-2048 19 -1108 0 -2027 -3 -2042 -7z"/>
<path d="M767 2490 c-59 -11 -161 -58 -205 -94 -18 -16 -44 -48 -59 -73 -28
-48 -55 -145 -44 -159 3 -5 61 -9 129 -10 l123 0 6 26 c13 57 89 110 158 110
38 0 98 -21 119 -42 63 -63 44 -168 -36 -210 -28 -15 -59 -20 -123 -20 l-85
-1 0 -103 0 -104 86 0 c110 0 171 -24 202 -79 63 -112 -17 -225 -160 -224 -81
0 -147 35 -172 90 l-19 42 -125 0 -125 0 6 -43 c21 -153 148 -265 336 -296
224 -37 449 50 529 205 34 67 37 187 5 255 -27 60 -86 116 -142 136 -25 9 -55
20 -66 24 l-20 8 20 6 c176 58 248 228 164 389 -33 64 -113 124 -205 152 -59
19 -230 27 -297 15z"/>
<path d="M2337 2175 c-100 -35 -155 -125 -145 -236 7 -66 48 -126 113 -161
l50 -27 2005 -1 c1440 0 2016 3 2045 11 81 23 136 86 153 176 14 82 -20 158
-99 219 -42 32 -105 33 -2094 33 -1629 -1 -1997 -3 -2028 -14z"/>
</g>
</svg>
